<?xml version="1.0" standalone="no"?>
<!DOCTYPE svg PUBLIC "-//W3C//DTD SVG 20010904//EN"
 "http://www.w3.org/TR/2001/REC-SVG-20010904/DTD/svg10.dtd">
<svg version="1.0" xmlns="http://www.w3.org/2000/svg"
 width="794.000000pt" height="716.000000pt" viewBox="0 0 794.000000 716.000000"
 preserveAspectRatio="xMidYMid meet">
<metadata>
Created by potrace 1.16, written by Peter Selinger 2001-2019
</metadata>
<g transform="translate(0.000000,716.000000) scale(0.100000,-0.100000)"
fill="#000000" stroke="none">
<path d="M5525 7143 c-440 -36 -842 -199 -1200 -487 -97 -78 -231 -204 -290
-274 -33 -39 -64 -71 -69 -71 -5 -1 -63 52 -130 117 -180 174 -353 302 -561
413 -396 212 -855 312 -1275 279 -668 -52 -1190 -371 -1615 -985 -158 -229
-213 -326 -269 -483 -91 -254 -128 -587 -96 -852 69 -556 347 -1105 851 -1682
l41 -47 -18 -73 c-28 -111 -24 -261 9 -363 75 -228 270 -368 567 -406 l90 -12
0 -87 c0 -286 171 -532 441 -634 49 -18 206 -56 234 -56 2 0 3 -27 3 -60 0
-163 79 -320 222 -443 122 -105 254 -165 508 -233 8 -2 12 -23 12 -57 0 -30 9
-88 20 -131 75 -294 322 -464 675 -466 94 0 274 23 303 39 11 6 27 4 52 -9
131 -67 335 -84 481 -42 185 54 335 174 421 338 60 115 88 265 71 375 l-10 56
118 6 c188 9 317 65 428 182 106 114 159 244 168 410 l6 110 111 0 c61 1 136
7 166 14 162 39 311 157 387 306 58 115 68 161 68 306 l0 126 122 6 c191 9
304 56 423 176 110 110 166 242 177 411 7 113 -17 223 -70 329 l-34 66 107
116 c334 364 554 723 671 1094 123 392 119 800 -12 1190 -150 446 -468 840
-888 1104 -435 272 -981 420 -1416 384z m395 -339 c205 -28 425 -98 645 -205
549 -266 918 -730 1021 -1284 28 -148 26 -412 -4 -560 -69 -346 -239 -680
-520 -1020 -76 -92 -210 -235 -220 -235 -3 0 -125 118 -271 263 -238 234 -274
266 -346 304 -230 120 -489 117 -703 -9 -77 -45 -180 -150 -219 -223 -58 -110
-80 -256 -61 -390 l8 -50 -103 -1 c-113 -1 -201 -20 -281 -61 -233 -118 -346
-295 -347 -546 l-1 -98 -51 6 c-156 20 -376 -55 -507 -173 -170 -150 -231
-429 -145 -657 l23 -63 -325 -338 c-178 -187 -348 -366 -376 -399 -28 -33 -56
-59 -61 -58 -6 1 -51 13 -101 27 -264 73 -414 201 -415 352 0 85 24 136 109
226 42 45 315 335 607 644 573 607 563 594 544 681 -23 99 -132 151 -224 108
-18 -9 -287 -286 -632 -651 l-599 -636 -82 6 c-99 6 -207 41 -267 88 -145 110
-177 327 -73 495 18 29 267 295 572 609 297 306 548 572 559 592 63 122 -74
263 -207 213 -14 -6 -115 -101 -224 -213 -516 -526 -923 -949 -939 -977 -17
-30 -21 -31 -84 -31 -134 0 -276 37 -339 88 -96 78 -111 252 -34 394 20 37
311 343 1022 1074 l994 1023 333 -337 c339 -345 406 -403 531 -459 204 -91
454 -96 630 -13 121 56 194 127 253 246 118 236 82 548 -89 777 -22 28 -193
205 -380 392 -188 187 -341 346 -341 353 0 23 282 296 380 369 422 311 850
425 1340 357z m-3530 -15 c363 -40 736 -195 1049 -437 107 -82 1190 -1158
1235 -1227 59 -90 80 -158 80 -265 0 -144 -38 -218 -135 -260 -108 -46 -245
-36 -379 27 -72 34 -91 52 -459 427 -749 761 -772 784 -813 791 -61 11 -105
-2 -148 -45 -43 -43 -56 -87 -45 -146 5 -28 34 -66 131 -169 68 -73 124 -136
124 -139 0 -5 -1547 -1602 -1859 -1919 l-76 -77 -81 97 c-474 575 -701 1118
-681 1631 9 256 71 481 183 673 44 74 180 270 253 364 83 108 285 302 391 377
356 252 758 349 1230 297z m3600 -2971 c98 -29 134 -59 439 -362 167 -165 323
-327 346 -358 82 -110 94 -236 34 -357 -51 -103 -126 -144 -264 -145 -106 -1
-167 17 -253 74 -72 49 -651 642 -688 706 -53 91 -62 221 -20 301 62 122 251
187 406 141z m-760 -748 c124 -24 141 -37 502 -397 390 -390 393 -393 393
-543 0 -78 -3 -90 -34 -147 -51 -94 -111 -132 -231 -147 -74 -9 -151 7 -237
49 -66 33 -97 61 -390 360 -362 369 -383 397 -391 520 -8 125 32 201 136 262
45 27 125 51 173 52 15 1 50 -4 79 -9z m-726 -705 c103 -17 143 -49 492 -398
362 -362 378 -383 390 -505 13 -122 -49 -245 -150 -297 -53 -27 -67 -30 -155
-29 -109 0 -174 20 -256 78 -26 19 -187 177 -356 351 -346 356 -361 376 -367
500 -2 39 1 90 8 114 23 86 134 172 247 190 48 9 72 8 147 -4z m-359 -926 c53
-55 95 -102 93 -105 -3 -2 -40 -13 -83 -25 -228 -59 -402 -222 -477 -444 -19
-59 -23 -90 -22 -195 0 -124 10 -172 59 -284 8 -18 4 -19 -77 -13 -156 11
-249 59 -303 158 -24 45 -29 65 -29 124 -1 122 11 138 391 534 184 193 339
351 343 351 4 0 51 -45 105 -101z m290 -444 c207 -63 308 -293 209 -476 -137
-251 -514 -239 -642 21 -23 46 -27 68 -27 135 0 68 4 88 29 135 48 93 121 155
219 185 57 18 151 18 212 0z"/>
</g>
</svg>
